<svg width="1200" height="840" viewBox="0 0 1200 840" fill="none" xmlns="http://www.w3.org/2000/svg">
  <rect width="1200" height="840" fill="#F7F4EE"/>
  <rect x="64" y="64" width="1072" height="712" rx="36" fill="#FFFDF9" stroke="#E9E1D2" stroke-width="2"/>
  <circle cx="260" cy="252" r="120" fill="#F4EFE5"/>
  <circle cx="600" cy="252" r="120" fill="#EFE7D4"/>
  <circle cx="940" cy="252" r="120" fill="#F2EEE7"/>

  <path d="M215 214C215 182 241 158 273 158H287C319 158 345 182 345 214V296C345 340 309 376 265 376C221 376 185 340 185 296V214C185 182 211 158 243 158H257" fill="#FCFBF7"/>
  <path d="M555 214C555 182 581 158 613 158H627C659 158 685 182 685 214V296C685 340 649 376 605 376C561 376 525 340 525 296V214C525 182 551 158 583 158H597" fill="#D7B36A"/>
  <path d="M895 214C895 182 921 158 953 158H967C999 158 1025 182 1025 214V296C1025 340 989 376 945 376C901 376 865 340 865 296V214C865 182 891 158 923 158H937" fill="#EAE5DC"/>
  <path d="M917 208C917 186 935 168 957 168H963C985 168 1003 186 1003 208V294C1003 326 977 352 945 352C913 352 887 326 887 294V208C887 186 905 168 927 168H933" fill="#FFF9F0"/>

  <text x="206" y="430" fill="#2B3340" font-family="Pretendard, sans-serif" font-size="34" font-weight="700">지르코니아</text>
  <text x="574" y="430" fill="#7A5615" font-family="Pretendard, sans-serif" font-size="34" font-weight="700">골드</text>
  <text x="926" y="430" fill="#4B5563" font-family="Pretendard, sans-serif" font-size="34" font-weight="700">PFM</text>

  <g fill="#4B5563" font-family="Pretendard, sans-serif" font-size="24">
    <text x="154" y="486">자연스러운 색과 강도의 균형</text>
    <text x="520" y="486">어금니 기능과 장기 안정성</text>
    <text x="848" y="486">검증된 선택지, 경계부 심미는 확인</text>
  </g>

  <line x1="144" y1="552" x2="1056" y2="552" stroke="#E8E1D6" stroke-width="2"/>

  <g fill="#2B3340" font-family="Pretendard, sans-serif" font-size="28" font-weight="700">
    <text x="150" y="622">볼 것 1</text>
    <text x="150" y="692">볼 것 2</text>
  </g>
  <g fill="#5B6472" font-family="Pretendard, sans-serif" font-size="24">
    <text x="282" y="622">앞니인가, 어금니인가</text>
    <text x="282" y="692">심미를 더 볼지, 기능을 더 볼지</text>
    <text x="660" y="622">이갈이·교합력이 강한가</text>
    <text x="660" y="692">잇몸 경계가 많이 보이는 위치인가</text>
  </g>

  <text x="150" y="744" fill="#6B7280" font-family="Pretendard, sans-serif" font-size="22">정답은 재료 이름 하나로 정해지지 않습니다. 위치와 교합, 심미 기대치를 함께 보는 것이 핵심입니다.</text>
</svg>
